Coordinates
version=1
nRows=13
nColumns=40
inDegrees=yes

Units are S.I. units (second, meters, Newtons, ...)
Angles are in degrees.

endheader
time	pelvis_tilt	pelvis_list	pelvis_rotation	pelvis_tx	pelvis_ty	pelvis_tz	hip_flexion_r	hip_adduction_r	hip_rotation_r	knee_angle_r	knee_angle_r_beta	ankle_angle_r	subtalar_angle_r	mtp_angle_r	hip_flexion_l	hip_adduction_l	hip_rotation_l	knee_angle_l	knee_angle_l_beta	ankle_angle_l	subtalar_angle_l	mtp_angle_l	lumbar_extension	lumbar_bending	lumbar_rotation	arm_flex_r	arm_add_r	arm_rot_r	elbow_flex_r	pro_sup_r	wrist_flex_r	wrist_dev_r	arm_flex_l	arm_add_l	arm_rot_l	elbow_flex_l	pro_sup_l	wrist_flex_l	wrist_dev_l
     31.53042857	     -2.42630239	     -3.01863034	     -0.86597001	      0.91756925	      0.93195432	      0.43528842	     31.86851730	     -4.64533756	     -4.78572400	     61.29849606	     61.29849606	      3.82469647	    -18.88808841	     11.13454847	     11.80029253	     -3.09300830	     -4.47028411	     21.58404989	     21.58404989	     14.29560817	    -13.36196986	     -1.86482845	     -9.97830926	      4.39262387	      1.81228704	      0.89303625	    -13.38531570	     -0.20744046	     34.46042267	     46.29287985	      0.00000000	      0.00000000	      5.40860129	    -13.36614938	     -0.04844134	     52.36083371	     45.63093786	      0.00000000	      0.00000000
     31.54335714	     -2.42663926	     -3.06289961	     -1.19280724	      0.91747283	      0.93226888	      0.43566209	     32.10672958	     -4.42501134	     -4.89666064	     58.52291642	     58.52291642	      3.78116524	    -18.79436057	      9.49965675	     11.03885997	     -3.18082306	     -4.85063044	     21.09995538	     21.09995538	     14.46496867	    -13.13563437	     -2.31658773	    -10.07967896	      4.48636093	      1.30826325	      0.96709011	    -13.05087253	     -0.57188939	     29.91596072	     46.47947735	      0.00000000	      0.00000000	      4.90123103	    -14.14415180	     -0.15823395	     55.70007850	     45.74232666	      0.00000000	      0.00000000
     31.55628571	     -2.52121049	     -3.20425440	     -1.45711045	      0.91737535	      0.93244830	      0.43614765	     32.31076746	     -4.08681342	     -5.15749900	     55.47930461	     55.47930461	      4.17638678	    -18.58339820	      9.49114353	     10.40781482	     -3.34477072	     -5.04738049	     20.64074155	     20.64074155	     14.66701142	    -13.09148147	     -2.29627766	    -10.09775612	      4.75827745	      1.41883340	     -0.50744382	    -13.27591577	     -0.56641318	     28.92474804	     46.50555793	      0.00000000	      0.00000000	      5.55660318	    -14.28183239	     -0.48202656	     56.58360335	     45.79411781	      0.00000000	      0.00000000
     31.56921429	     -2.53636602	     -3.24556812	     -1.79874280	      0.91744141	      0.93253292	      0.43678335	     32.22322622	     -3.84695503	     -5.43796438	     52.03984605	     52.03984605	      3.78116496	    -18.35913207	      6.86108118	      9.67765642	     -3.44095580	     -5.44400150	     20.21531046	     20.21531046	     14.87124887	    -12.82398329	     -2.65403129	    -10.20547758	      4.82272304	      1.28402439	     -1.18055924	    -13.24363600	     -0.91671054	     26.32831181	     46.62099232	      0.00000000	      0.00000000	      5.46692710	    -14.65505421	     -1.26855169	     59.44439968	     45.96107171	      0.00000000	      0.00000000
     31.58214286	     -2.63067540	     -3.33508335	     -2.11042282	      0.91752595	      0.93247900	      0.43762106	     32.14355872	     -3.47834846	     -5.74464764	     48.50943649	     48.50943649	      4.12360920	    -17.85223670	      6.70433423	      9.04500944	     -3.56491345	     -5.66880891	     19.79729421	     19.79729421	     15.07866457	    -12.80449431	     -2.65091996	    -10.20993778	      4.95053654	      1.47550709	     -2.57999107	    -13.47177883	     -0.94592745	     25.45333474	     46.64606142	      0.00000000	      0.00000000	      6.17857751	    -14.82134786	     -1.67454137	     60.43460848	     46.02388942	      0.00000000	      0.00000000
     31.59507143	     -2.69441391	     -3.34384097	     -2.43761565	      0.91783078	      0.93233204	      0.43846212	     31.82690170	     -3.21702133	     -6.14014154	     44.67273565	     44.67273565	      3.85013836	    -17.14714288	      4.83793265	      8.34715567	     -3.62359681	     -6.07566591	     19.35075021	     19.35075021	     15.28473851	    -12.52756067	     -2.86196468	    -10.25024548	      5.03327804	      1.67114348	     -3.86147811	    -13.65524486	     -1.18429030	     24.29448496	     46.70009871	      0.00000000	      0.00000000	      6.49322991	    -14.87275474	     -2.36800053	     62.65414684	     46.14737013	      0.00000000	      0.00000000
     31.60800000	     -2.74848374	     -3.39948452	     -2.71611111	      0.91829101	      0.93202446	      0.43945895	     31.26991604	     -2.90388921	     -6.71758812	     40.54553325	     40.54553325	      3.08398100	    -16.37495075	      1.56893011	      7.67841730	     -3.72054442	     -6.33015451	     18.99092468	     18.99092468	     15.48833509	    -12.43383833	     -3.13465937	    -10.25562622	      5.13427413	      1.35610388	     -4.74096227	    -13.70403015	     -1.75925745	     23.33846938	     46.77475442	      0.00000000	      0.00000000	      6.46041853	    -15.17628162	     -3.55643711	     64.80683417	     46.35174830	      0.00000000	      0.00000000
     31.62092857	     -2.89009133	     -3.43525569	     -3.01212563	      0.91886430	      0.93152001	      0.44065832	     30.81474415	     -2.53724801	     -7.24446565	     36.66059092	     36.66059092	      3.39377483	    -14.89675997	      1.77516421	      7.11367424	     -3.79995957	     -6.55670185	     18.66883679	     18.66883679	     15.74597023	    -12.41540322	     -3.19457108	    -10.10317281	      5.25318915	      1.47810362	     -6.00673144	    -13.88305683	     -1.80345993	     22.80722694	     46.78869666	      0.00000000	      0.00000000	      7.11189149	    -15.37942971	     -3.90025430	     65.69230963	     46.40281147	      0.00000000	      0.00000000
     31.63385714	     -2.90262194	     -3.44741572	     -3.29424142	      0.91975876	      0.93105913	      0.44203999	     30.07963283	     -2.20733055	     -7.92339167	     32.81372925	     32.81372925	      3.67694616	    -12.96092672	      1.83373243	      6.35016196	     -3.86411695	     -6.85640276	     18.28546172	     18.28546172	     16.01532528	    -12.23961955	     -3.31996306	    -10.11295651	      5.27455406	      1.76840854	     -7.36315018	    -14.05601330	     -1.90739482	     22.38613861	     46.80180248	      0.00000000	      0.00000000	      7.73301549	    -15.44254503	     -4.37994668	     67.08014475	     46.47304825	      0.00000000	      0.00000000
     31.64678571	     -2.90898193	     -3.40352270	     -3.56880786	      0.92087426	      0.93040935	      0.44357501	     29.29390887	     -1.93573154	     -8.69883108	     29.19527661	     29.19527661	      3.83532785	    -10.77313172	      1.91484974	      5.56722282	     -3.87733790	     -7.20936556	     17.90242307	     17.90242307	     16.31354426	    -11.99868991	     -3.52282726	    -10.10089706	      5.22575174	      1.97948491	     -8.68229580	    -14.15063028	     -2.09026576	     22.22267264	     46.80998772	      0.00000000	      0.00000000	      8.20654371	    -15.54808450	     -5.00931648	     68.71499672	     46.55867129	      0.00000000	      0.00000000
     31.65971429	     -2.92143505	     -3.23690372	     -3.82434298	      0.92229246	      0.92948210	      0.44522053	     28.56529177	     -1.83089734	     -9.62807665	     26.06349656	     26.06349656	      4.03014806	     -8.30261956	      1.88440428	      4.75185873	     -3.77318480	     -7.68269563	     17.46553424	     17.46553424	     16.58151614	    -11.55352790	     -3.89961336	    -10.03989073	      5.00709474	      1.98831656	    -10.01607549	    -14.16738626	     -2.58003382	     22.76980201	     46.80958815	      0.00000000	      0.00000000	      8.24043818	    -15.63728683	     -6.20329259	     71.19604343	     46.70975085	      0.00000000	      0.00000000
     31.67264286	     -3.04530780	     -3.22856384	     -4.03234601	      0.92378223	      0.92837721	      0.44715823	     27.89029015	     -1.40530357	    -10.19601023	     23.18010573	     23.18010573	      3.94647712	     -6.79456150	      2.40663645	      4.13551597	     -3.83993717	     -7.88222585	     17.18895627	     17.18895627	     16.89784908	    -11.50989840	     -4.04224881	     -9.75465857	      5.00661291	      2.00852131	    -11.03776092	    -14.15005878	     -2.71295556	     22.69373387	     46.81173672	      0.00000000	      0.00000000	      8.65960126	    -15.80842288	     -6.72479904	     72.25615847	     46.77444691	      0.00000000	      0.00000000
     31.68557143	     -2.92332050	     -3.13911316	     -4.22366882	      0.92568173	      0.92741471	      0.44914375	     27.08619152	     -1.22311149	    -11.08160998	     21.06473569	     21.06473569	      4.04471219	     -4.75813389	      2.80112489	      3.14668865	     -3.81105678	     -8.24245728	     16.76811904	     16.76811904	     17.26333641	    -11.11876923	     -4.28607713	     -9.76593661	      4.87206619	      2.11919614	    -12.23271877	    -14.19011568	     -3.06738634	     23.11171296	     46.80617125	      0.00000000	      0.00000000	      8.91965105	    -15.82847123	     -7.73151676	     74.18990270	     46.89468535	      0.00000000	      0.00000000
